User Type,Username,Date,Text
[T],thetorrentlord,2011-05-22T15:25Z,"THE TOURIST 2010\BDMV\STREAM\00000.m2ts
Format                           : BDAV
Format/Info                      : Blu-ray Video
File size                        : 4.36 GiB
Duration                         : 1h 43mn
Overall bit rate                 : 6 035 Kbps
Maximum Overall bit rate         : 35.5 Mbps

Video
ID                               : 4113 (0x1011)
Menu ID                          : 1 (0x1)
Format                           : AVC
Format/Info                      : Advanced Video Codec
Format profile                   : High@L4.1
Format settings, CABAC           : Yes
Format settings, ReFrames        : 3 frames
Duration                         : 1h 43mn
Bit rate                         : 4 275 Kbps
Nominal bit rate                 : 4 061 Kbps
Width                            : 1 280 pixels
Height                           : 720 pixels
Display aspect ratio             : 16:9
Frame rate                       : 23.976 fps
Resolution                       : 8 bits
Colorimetry                      : 4:2:0
Scan type                        : Progressive
Bits/(Pixel*Frame)               : 0.193
Stream size                      : 3.09 GiB (71%)
Writing library                  : x264 core 115 r1936+503 e048045"
[T],thetorrentlord,2011-05-22T15:25Z,"Audio
ID                               : 4352 (0x1100)
Menu ID                          : 1 (0x1)
Format                           : DTS
Format/Info                      : Digital Theater Systems
Duration                         : 1h 43mn
Bit rate mode                    : Constant
Bit rate                         : 1 510 Kbps
Channel(s)                       : 6 channels
Channel positions                : Front: L C R, Surround: L R, LFE
Sampling rate                    : 48.0 KHz
Resolution                       : 24 bits
Stream size                      : 1.09 GiB (25%)

Text
ID                               : 4608 (0x1200)
Menu ID                          : 1 (0x1)
Format                           : PGS									






Menu
00:00:00.000                     : Chapter 1
00:05:00.000                     : Chapter 2
00:10:00.000                     : Chapter 3
00:15:00.000                     : Chapter 4
00:20:00.000                     : Chapter 5
00:25:00.000                     : Chapter 6
00:30:00.000                     : Chapter 7
00:35:00.000                     : Chapter 8
00:40:00.000                     : Chapter 9
00:45:00.000                     : Chapter 10
00:50:00.000                     : Chapter 11
00:55:00.000                     : Chapter 12
01:00:00.000                     : Chapter 13
01:05:00.000                     : Chapter 14
01:10:00.000                     : Chapter 15
01:15:00.000                     : Chapter 16
01:20:00.000                     : Chapter 17
01:25:00.000                     : Chapter 18
01:30:00.000                     : Chapter 19
01:35:00.000                     : Chapter 20
01:40:00.000                     : Chapter 21"
